#!OML:ASF H:\Terrain\Patient Classification 1\Terrain2\Thursday\justin.ASF
:FULLY-SPECIFIED
:DEGREES
540
root 8.61754 17.5379 34.5893 0.080269 -3.93566 -6.35841
lowerback 2.52568 1.74162 6.48511
upperback 1.93515 2.42581 3.15041
thorax 0.712673 1.25808 -0.427787
lowerneck -15.0843 -4.99987 -10.5002
upperneck 23.0637 -5.93577 6.41814
head 10.3884 -2.92329 3.23555
rclavicle -1.68967e-015 -3.18055e-015
rhumerus -19.0145 0.00391336 -80.4498
rradius 41.3312
rwrist -13.4721
rhand -19.2106 13.4839
rfingers 7.12502
rthumb 7.10183 -16.3769
lclavicle -1.68967e-015 -3.18055e-015
lhumerus -39.0452 10.227 83.6091
lradius 23.8043
lwrist -4.27584
lhand -12.1706 22.7318
lfingers 7.12502
lthumb 13.8926 52.2478
rfemur 10.5648 -0.961627 30.4674
rtibia 16.5256
rfoot -20.898 4.65421
rtoes 6.72758
lfemur -29.0041 2.5032 -10.9276
ltibia 25.2676
lfoot -15.4375 -1.17102
ltoes -15.5076
541
root 8.61213 17.5179 34.7466 -0.0717135 -4.34969 -7.32334
lowerback 4.98659 1.58659 6.71294
upperback 0.21637 2.58825 3.72058
thorax -2.45314 1.23001 -0.0934985
lowerneck -13.5443 -4.70893 -10.7923
upperneck 24.2418 -5.6209 6.20239
head 10.494 -2.87219 3.29057
rclavicle 1.59525e-014 3.81667e-014
rhumerus -21.974 1.05232 -80.4496
rradius 41.9321
rwrist -13.6707
rhand -19.1456 13.3292
rfingers 7.12502
rthumb 7.16462 -16.5296
lclavicle 1.59525e-014 3.81667e-014
lhumerus -42.2255 10.1518 83.3863
lradius 24.1869
lwrist -4.35977
lhand -12.3477 22.2618
lfingers 7.12502
lthumb 13.722 51.7893
rfemur 11.3697 0.286701 31.844
rtibia 16.4609
rfoot -20.5093 4.00138
rtoes 7.9858
lfemur -28.4822 2.24563 -9.6145
ltibia 25.3295
lfoot -14.8551 -1.09973
ltoes -15.514
542
root 8.62882 17.4915 34.9009 -0.237302 -4.56976 -8.68539
lowerback 5.12012 1.53854 8.2509
upperback 0.358087 2.62008 4.01036
thorax -2.32647 1.23527 -0.644329
lowerneck -13.5878 -4.71004 -10.6932
upperneck 24.3177 -5.63897 6.17561
head 10.5276 -2.87472 3.26221
rclavicle 2.08972e-014 5.32743e-014
rhumerus -21.985 0.822526 -80.5892
rradius 42.1253
rwrist -13.5745
rhand -19.1805 13.0073
rfingers 7.12502
rthumb 7.13089 -16.8526
lclavicle 2.08972e-014 5.32743e-014
lhumerus -42.0633 10.1611 83.3951
lradius 24.0681
lwrist -4.72701
lhand -12.4431 21.8955
lfingers 7.12502
lthumb 13.63 51.4293
rfemur 12.3905 0.861342 33.4136
rtibia 16.0321
rfoot -20.0265 3.70612
rtoes 8.47369
lfemur -28.1557 2.5802 -8.18182
ltibia 25.9922
lfoot -14.3496 -1.68035
ltoes -13.9801
543
root 8.65285 17.4888 35.0503 0.0663247 -4.24007 -8.07851
lowerback 3.77771 1.49757 7.94179
upperback 1.0054 2.33803 3.73893
thorax -0.919674 1.15525 -0.685447
lowerneck -14.3273 -4.76222 -10.1579
upperneck 23.9939 -5.63288 5.72765
head 10.5203 -2.85668 2.99521
rclavicle -2.10215e-014 -9.93923e-015
rhumerus -20.8658 0.222397 -80.6519
rradius 42.1373
rwrist -13.2602
rhand -19.0146 13.0329
rfingers 7.12502
rthumb 7.29107 -16.8215
lclavicle -2.10215e-014 -9.93923e-015
lhumerus -40.6135 10.1832 83.6752
lradius 23.8092
lwrist -4.86641
lhand -12.4755 22.0537
lfingers 7.12502
lthumb 13.5987 51.5896
rfemur 12.7321 0.495256 32.5091
rtibia 15.5904
rfoot -19.7022 3.97262
rtoes 7.65591
lfemur -28.4607 2.38518 -9.09008
ltibia 26.7128
lfoot -13.9402 -2.04145
ltoes -12.6619
544
root 8.63043 17.4449 35.2074 -0.282095 -5.04262 -9.02862
lowerback 3.93524 1.79375 8.48923
upperback 1.41705 2.73868 4.03893
thorax -0.540686 1.37441 -0.6869
lowerneck -14.1883 -4.99406 -10.4909
upperneck 23.3824 -6.00505 6.2592
head 10.3335 -2.99349 3.18435
rclavicle 3.0588e-014 1.11319e-014
rhumerus -20.6453 -0.540207 -80.62
rradius 42.2862
rwrist -12.8444
rhand -18.5777 13.0708
rfingers 7.12502
rthumb 7.71276 -16.7686
lclavicle 3.0588e-014 1.11319e-014
lhumerus -39.9429 9.88736 83.8868
lradius 23.6818
lwrist -4.95499
lhand -12.434 22.2436
lfingers 7.12502
lthumb 13.6387 51.7768
rfemur 13.909 2.12432 34.1405
rtibia 15.2818
rfoot -19.2516 2.51437
rtoes 4.50301
lfemur -27.7622 2.13639 -7.60957
ltibia 27.5566
lfoot -13.4201 -1.36703
ltoes -13.9468
545
root 8.6692 17.4409 35.3609 0.0514442 -4.5385 -8.4779
lowerback 3.4171 1.71794 8.39679
upperback 1.37149 2.57471 3.73801
thorax -0.299772 1.30074 -0.923397
lowerneck -13.9383 -5.18792 -10.687
upperneck 23.0328 -6.32274 6.57271
head 10.2076 -3.12364 3.28441
rclavicle -3.67752e-014 -2.22639e-014
rhumerus -20.8109 -1.21132 -80.5731
rradius 42.531
rwrist -12.5766
rhand -18.1969 13.0122
rfingers 7.12502
rthumb 8.08033 -16.8133
lclavicle -3.67752e-014 -2.22639e-014
lhumerus -39.6193 9.67917 83.9942
lradius 23.6297
lwrist -5.07638
lhand -12.4349 22.2658
lfingers 7.12502
lthumb 13.6379 51.799
rfemur 13.7919 0.697142 32.8819
rtibia 15.717
rfoot -19.5015 3.28407
rtoes 0.514059
lfemur -28.0071 1.89492 -8.58957
ltibia 27.9716
lfoot -11.907 -1.85134
ltoes -15.377
546
root 8.67763 17.4112 35.5234 -0.586 -5.61142 -9.41258
lowerback 4.2165 1.98401 9.2804
upperback 1.59814 3.03849 3.98423
thorax -0.441331 1.53242 -1.19222
lowerneck -13.9645 -5.37385 -10.6729
upperneck 23.2432 -6.58161 6.51052
head 10.3124 -3.24956 3.22486
rclavicle 6.95746e-016 -1.59028e-015
rhumerus -21.2369 -1.41817 -80.5547
rradius 42.8769
rwrist -12.7438
rhand -18.0578 13.0052
rfingers 7.12502
rthumb 8.21455 -16.8151
lclavicle 6.95746e-016 -1.59028e-015
lhumerus -39.4291 9.4458 84.1109
lradius 23.5099
lwrist -4.96388
lhand -12.5591 22.2594
lfingers 7.12502
lthumb 13.5181 51.8006
rfemur 14.9637 2.19102 34.2788
rtibia 16.2583
rfoot -19.2149 2.31352
rtoes -2.56385
lfemur -26.9164 2.16902 -7.23371
ltibia 28.5305
lfoot -10.2394 -1.30212
ltoes -14.419
547
root 8.68392 17.4214 35.69 -0.666368 -5.93071 -8.6357
lowerback 3.9241 2.08997 8.446
upperback 1.7868 3.09552 3.76366
thorax -0.110529 1.57494 -0.947567
lowerneck -14.0165 -5.53548 -10.5759
upperneck 23.2193 -6.77894 6.32027
head 10.3232 -3.35169 3.11027
rclavicle -1.47101e-014 -3.02153e-014
rhumerus -21.3376 -1.61328 -80.6011
rradius 43.0522
rwrist -12.89
rhand -18.155 13.2033
rfingers 7.12502
rthumb 8.12069 -16.6207
lclavicle -1.47101e-014 -3.02153e-014
lhumerus -38.9787 9.54204 84.0783
lradius 23.3765
lwrist -5.08756
lhand -12.5533 22.2027
lfingers 7.12502
lthumb 13.5237 51.7435
rfemur 15.2754 2.45584 33.3298
rtibia 17.0265
rfoot -18.9218 2.45664
rtoes -4.28871
lfemur -26.6353 2.24762 -8.07752
ltibia 28.9386
lfoot -8.35158 -0.9485
ltoes -11.1572
548
root 8.68872 17.4206 35.8575 -0.822173 -6.46023 -8.89765
lowerback 4.83891 2.05268 8.23074
upperback 1.20534 3.19665 4.06064
thorax -1.2494 1.57412 -0.583847
lowerneck -13.2755 -5.43456 -10.6035
upperneck 23.6236 -6.62385 5.89997
head 10.2998 -3.34871 3.00392
rclavicle -5.8393e-015 -2.42517e-014
rhumerus -22.6468 -1.33745 -80.5231
rradius 43.0928
rwrist -12.8067
rhand -18.3621 13.585
rfingers 7.12502
rthumb 7.92082 -16.2466
lclavicle -5.8393e-015 -2.42517e-014
lhumerus -40.0856 10.2039 83.7732
lradius 23.4094
lwrist -5.48074
lhand -12.8539 21.8782
lfingers 7.12502
lthumb 13.2341 51.4381
rfemur 15.3334 2.93651 33.612
rtibia 18.5198
rfoot -18.6059 2.69466
rtoes -4.75429
lfemur -26.022 2.81237 -7.74737
ltibia 28.9755
lfoot -6.35779 -1.01159
ltoes -8.10939
549
root 8.70838 17.416 36.0227 -0.973105 -6.7231 -9.26461
lowerback 4.0262 2.15429 9.02833
upperback 2.03719 3.19127 3.92431
thorax 0.125424 1.63828 -1.09951
lowerneck -14.1502 -5.7381 -10.5394
upperneck 23.5636 -7.03483 6.1485
head 10.492 -3.48539 3.00567
rclavicle 2.13694e-015 -1.03368e-014
rhumerus -21.5824 -2.51904 -80.7535
rradius 42.6358
rwrist -12.4408
rhand -18.5104 13.8919
rfingers 7.12502
rthumb 7.77776 -15.9451
lclavicle 2.13694e-015 -1.03368e-014
lhumerus -38.4955 10.1669 83.7635
lradius 23.0089
lwrist -5.7966
lhand -13.1166 21.8448
lfingers 7.12502
lthumb 12.9808 51.421
rfemur 15.1986 3.07763 33.8972
rtibia 20.2599
rfoot -18.2249 3.16129
rtoes -5.44713
lfemur -25.4686 3.78482 -7.53319
ltibia 28.9848
lfoot -4.49608 -1.925
ltoes -6.50622
550
root 8.73289 17.4727 36.1887 -0.590544 -6.12124 -5.86371
lowerback 3.75248 1.96305 5.52636
upperback 1.36942 2.8354 3.01702
thorax -0.577721 1.41965 -0.105654
lowerneck -13.6336 -5.8217 -10.8537
upperneck 23.8431 -7.22288 6.42294
head 10.5371 -3.58265 3.14313
rclavicle -4.08254e-014 -6.75868e-014
rhumerus -22.4973 -3.04182 -80.8231
rradius 42.1972
rwrist -12.0654
rhand -18.6238 14.3781
rfingers 7.12502
rthumb 7.66825 -15.4629
lclavicle -4.08254e-014 -6.75868e-014
lhumerus -39.113 10.4331 83.4572
lradius 22.8552
lwrist -5.93107
lhand -13.0626 22.2927
lfingers 7.12502
lthumb 13.0329 51.8656
rfemur 14.0287 2.11659 29.5528
rtibia 22.1498
rfoot -17.8336 4.26744
rtoes -6.98624
lfemur -25.9795 4.35826 -11.9243
ltibia 29.1072
lfoot -3.28017 -3.24373
ltoes -4.86163
551
root 8.72643 17.4928 36.3511 -1.0927 -6.64165 -5.82465
lowerback 4.27832 2.04658 5.13075
upperback 1.45736 2.96889 3.11757
thorax -0.80151 1.48207 0.191865
lowerneck -13.1877 -6.00885 -11.1029
upperneck 23.6403 -7.50732 6.56523
head 10.4232 -3.72798 3.20156
rclavicle -1.25234e-014 -2.90226e-014
rhumerus -22.8209 -3.65034 -80.8349
rradius 41.607
rwrist -11.9027
rhand -18.861 14.6991
rfingers 7.12502
rthumb 7.43929 -15.1501
lclavicle -1.25234e-014 -2.90226e-014
lhumerus -39.0278 10.9248 83.2672
lradius 22.5838
lwrist -6.08912
lhand -13.3149 22.3265
lfingers 7.12502
lthumb 12.7896 51.9147
rfemur 14.006 2.89882 29.7603
rtibia 24.3163
rfoot -16.7686 4.03907
rtoes -7.0014
lfemur -25.0923 5.55899 -12.0316
ltibia 29.3621
lfoot -2.64244 -4.35262
ltoes -2.40476
552
root 8.72415 17.5158 36.5133 -1.49292 -7.08751 -5.91181
lowerback 4.37646 2.16753 5.14369
upperback 1.7648 3.12003 3.14345
thorax -0.534936 1.56592 0.208862
lowerneck -12.8774 -6.29538 -11.4464
upperneck 23.3305 -7.92283 6.83762
head 10.3221 -3.92378 3.29979
rclavicle -1.07344e-014 -3.97569e-016
rhumerus -22.7958 -4.33874 -80.8558
rradius 40.9851
rwrist -11.8127
rhand -19.0607 14.5898
rfingers 7.12502
rthumb 7.24656 -15.2661
lclavicle -1.07344e-014 -3.97569e-016
lhumerus -38.5381 11.4436 83.034
lradius 22.3606
lwrist -6.51021
lhand -13.3282 22.1296
lfingers 7.12502
lthumb 12.7768 51.7187
rfemur 13.7474 3.37141 29.8981
rtibia 26.5693
rfoot -15.3706 4.37581
rtoes -5.73785
lfemur -24.1711 6.26014 -11.9819
ltibia 29.6589
lfoot -2.55556 -5.10725
ltoes -0.237275
